<?xml version="1.0" standalone="no"?>
<!DOCTYPE svg PUBLIC "-//W3C//DTD SVG 20010904//EN"
 "http://www.w3.org/TR/2001/REC-SVG-20010904/DTD/svg10.dtd">
<svg version="1.0" xmlns="http://www.w3.org/2000/svg"
 width="362.000000pt" height="362.000000pt" viewBox="0 0 362.000000 362.000000"
 preserveAspectRatio="xMidYMid meet">
<metadata>
Created by potrace 1.11, written by Peter Selinger 2001-2013
</metadata>
<g transform="translate(0.000000,362.000000) scale(0.100000,-0.100000)"
fill="#000000" stroke="none">
<path d="M1375 3379 c-546 -37 -1004 -456 -1116 -1019 -19 -96 -17 -386 4
-478 120 -526 508 -900 1024 -988 148 -25 351 -15 506 25 472 121 830 515 913
1005 26 153 16 374 -24 526 -100 386 -379 705 -745 850 -112 45 -219 70 -322
76 -49 3 -101 6 -115 8 -14 1 -70 -1 -125 -5z m377 -157 c186 -50 346 -141
485 -275 152 -147 256 -323 310 -524 24 -89 27 -115 27 -278 0 -165 -3 -188
-28 -280 -55 -202 -157 -376 -304 -517 -146 -140 -290 -223 -479 -276 -90 -25
-113 -27 -278 -27 -165 0 -188 2 -278 27 -189 53 -333 136 -479 276 -147 141
-252 320 -305 519 -24 89 -27 115 -27 278 0 163 3 189 27 278 111 414 449 735
855 812 112 21 372 14 474 -13z"/>
<path d="M1070 2134 l0 -585 333 3 332 3 67 33 c77 38 130 92 167 171 23 49
26 68 26 161 0 93 -3 112 -27 162 -37 79 -96 140 -171 174 -61 28 -67 29 -272
34 l-210 5 0 105 0 105 298 3 297 2 0 105 0 105 -420 0 -420 0 0 -586z m599
-79 c56 -33 76 -68 76 -135 0 -67 -20 -102 -75 -131 -30 -16 -58 -19 -197 -19
l-163 0 0 148 c0 82 3 152 8 156 4 4 77 6 162 4 133 -3 160 -6 189 -23z"/>
<path d="M2522 1278 c-44 -57 -152 -165 -212 -211 l-35 -27 120 -122 c67 -68
222 -226 345 -351 l225 -229 142 149 c78 81 143 150 143 153 0 3 -154 160
-343 348 l-343 343 -42 -53z"/>
<path d="M3179 422 c-102 -100 -141 -143 -136 -155 11 -29 68 -51 133 -52 117
0 204 85 204 202 0 51 -26 123 -49 137 -5 3 -73 -56 -152 -132z"/>
</g>
</svg>
